<svg xmlns="http://www.w3.org/2000/svg" viewBox="0 0 512 512" role="img" aria-labelledby="title desc">
  <title id="title">Draconis Systems Placeholder Logo</title>
  <desc id="desc">Stylized dragon head mark placeholder.</desc>
  <defs>
    <linearGradient id="g" x1="0" x2="1" y1="0" y2="1">
      <stop offset="0%" stop-color="#ff4d4d"/>
      <stop offset="100%" stop-color="#ff9f1c"/>
    </linearGradient>
  </defs>
  <rect width="512" height="512" rx="80" fill="#0e121b"/>
  <path d="M92 306c32-98 98-152 198-162 44-4 86 4 132 22-28 4-52 14-70 30 42 8 70 22 84 44-30-8-58-6-84 6-16 8-28 20-38 34l24 20-82 18-20 84-26-34c-20 4-40 2-58-8-28-14-48-34-60-54z" fill="url(#g)"/>
  <circle cx="306" cy="220" r="14" fill="#fff"/>
</svg>
